<svg width="122" height="62" viewBox="0 0 122 62" fill="none" xmlns="http://www.w3.org/2000/svg">
<g clip-path="url(#clip0_16_8)">
<path d="M32.6095 31.3807C31.3743 29.2112 29.5971 27.5802 27.2818 26.4906C24.9665 25.4011 22.5103 25.0475 19.9169 25.4298C17.3704 25.8057 15.214 26.8411 13.4513 28.5326C11.6887 30.2275 10.6231 32.2759 10.2547 34.6843L32.6132 31.3839L32.6095 31.3807ZM43.9585 33.2953C44.0705 33.8783 44.15 34.4868 44.1969 35.1207C44.2439 35.7547 44.2836 36.4142 44.3161 37.0927L11.6272 41.9191C12.2015 42.9035 12.9203 43.8146 13.7836 44.6493C14.6433 45.4839 15.6366 46.1721 16.7563 46.7136C17.876 47.2552 19.1006 47.6311 20.4262 47.8414C21.7518 48.0516 23.1677 48.0453 24.6775 47.8222C26.516 47.5515 28.304 46.9971 30.0377 46.1657C31.7715 45.331 33.1585 44.3466 34.206 43.2094L41.7227 47.937C39.2485 50.2275 36.7273 51.9573 34.1591 53.1265C31.591 54.2957 28.7988 55.1048 25.7828 55.5508C22.7162 56.0032 19.7544 55.9267 16.9008 55.3215C14.0473 54.7162 11.4791 53.7063 9.19635 52.2886C6.91354 50.871 4.98833 49.0934 3.41709 46.9494C1.84586 44.8085 0.812821 42.4257 0.314361 39.8038C-0.184101 37.1819 -0.0865753 34.6334 0.610547 32.158C1.30405 29.6827 2.47796 27.4463 4.13589 25.4457C5.79381 23.4482 7.84906 21.7534 10.2981 20.3644C12.7506 18.9755 15.4849 18.058 18.5046 17.612C21.3797 17.1883 24.2296 17.2488 27.0506 17.7936C29.868 18.3384 32.4506 19.2972 34.7948 20.6607C37.139 22.0242 39.1185 23.7764 40.7366 25.9108C42.3548 28.0453 43.4276 30.5078 43.9585 33.2953Z" fill="#4C020C"/>
<path d="M55.5531 54.9328C54.791 55.2482 53.9313 55.5062 52.9705 55.7037C52.0097 55.9012 51.0127 56 49.9834 56C48.5493 56 47.1768 55.8311 45.8584 55.4966C44.54 55.1621 43.3877 54.6174 42.4053 53.8688C41.4192 53.1201 40.639 52.142 40.0575 50.9411C39.4759 49.7369 39.187 48.2874 39.187 46.5925V6H49.0478V45.1111C49.0478 46.532 49.3729 47.5069 50.0195 48.0388C50.666 48.5709 51.439 48.8385 52.3348 48.8385C53.4509 48.8385 54.5273 48.5422 55.5567 47.9497V54.9328H55.5531Z" fill="#990800"/>
<path d="M59.317 8.19816C59.1039 7.7617 58.8113 7.37942 58.4429 7.05129C58.0709 6.72316 57.6374 6.4683 57.1425 6.28034C56.6477 6.09239 56.1203 6 55.5533 6C54.9862 6 54.4588 6.09557 53.964 6.28034C53.4691 6.4683 53.0357 6.72635 52.6636 7.05129C52.2916 7.37942 51.9991 7.7617 51.7895 8.19816C51.5764 8.6346 51.4717 9.1029 51.4717 9.59987C51.4717 10.0968 51.5764 10.5651 51.7895 11.0016C52.0026 11.438 52.2952 11.8203 52.6636 12.1453C53.0321 12.4702 53.4691 12.7314 53.964 12.9162C54.4588 13.1042 54.9862 13.1966 55.5533 13.1966C56.1203 13.1966 56.6477 13.1042 57.1425 12.9162C57.6374 12.7283 58.0709 12.4702 58.4429 12.1453C58.815 11.8171 59.1039 11.438 59.317 11.0016C59.5301 10.5651 59.6349 10.0968 59.6349 9.59987C59.6349 9.1029 59.5301 8.6346 59.317 8.19816ZM58.591 10.734C58.4176 11.0876 58.1828 11.3934 57.883 11.6578C57.5832 11.9223 57.2365 12.1293 56.8356 12.2854C56.4382 12.4383 56.0084 12.5148 55.5533 12.5148C55.0982 12.5148 54.6684 12.4383 54.271 12.2854C53.87 12.1293 53.5233 11.9223 53.2235 11.6578C52.9238 11.3966 52.6889 11.0876 52.5156 10.734C52.3385 10.3804 52.2518 10.0045 52.2518 9.59987C52.2518 9.19529 52.3385 8.81937 52.5156 8.46894C52.6889 8.11532 52.9238 7.80949 53.2235 7.54508C53.5233 7.28384 53.87 7.07359 54.271 6.92067C54.6684 6.76776 55.0982 6.6913 55.5533 6.6913C56.0084 6.6913 56.4382 6.76776 56.8356 6.92067C57.2365 7.07359 57.5832 7.28384 57.883 7.54508C58.1828 7.80949 58.4176 8.11532 58.591 8.46894C58.768 8.82256 58.8546 9.19847 58.8546 9.59987C58.8546 10.0013 58.768 10.3804 58.591 10.734ZM57.4243 11.5623C57.3882 11.4795 57.3448 11.3743 57.2942 11.2533C57.2184 11.0589 57.1534 10.8965 57.1029 10.7722C57.0523 10.6448 56.9981 10.5205 56.9403 10.3899C56.8861 10.2561 56.8139 10.1478 56.7272 10.0682C56.6405 9.98534 56.5249 9.91526 56.3805 9.85473C56.6477 9.73686 56.8645 9.57439 57.0306 9.36413C57.2004 9.15387 57.2834 8.94043 57.2834 8.72379C57.2834 8.5231 57.2437 8.34151 57.1642 8.17904C57.0848 8.01657 56.9764 7.87958 56.8391 7.76489C56.7019 7.65021 56.543 7.56101 56.3588 7.50048C56.1745 7.43995 55.9759 7.40809 55.77 7.40809H53.8303V11.7885H54.7695V10.0427H55.1524C55.4521 10.0427 55.6725 10.1128 55.8133 10.2529C55.9542 10.3931 56.0661 10.5715 56.142 10.7881L56.4924 11.7853H57.5399C57.4965 11.7248 57.4568 11.6515 57.4207 11.5655M56.077 9.21121C55.9109 9.33227 55.7122 9.3928 55.4774 9.3928H54.773V8.03249H55.4774C55.7122 8.03249 55.9109 8.0962 56.077 8.22045C56.2432 8.3447 56.3263 8.51354 56.3263 8.72061C56.3263 8.92768 56.2432 9.09016 56.077 9.21121Z" fill="#990800"/>
</g>
<path fill-rule="evenodd" clip-rule="evenodd" d="M113.255 24.6111L94.0593 6L90.5697 9.38578L91.4408 11.9221L75.9099 26.98L73.1162 26.3028L69.6265 29.6887L88.8223 48.2998L92.3145 44.9164L91.6161 42.2078L97.549 36.4555L111.51 49.9915L115 46.6081L101.039 33.0721L107.147 27.1499L109.765 27.9945L113.255 24.6111ZM78.3532 31.378L95.8042 14.4609L104.528 22.9218L87.0775 39.8389L78.3532 31.378Z" fill="#990800"/>
<path d="M92.6156 52.2144V57H85.2117H77.8078H63V52.2144H92.6156Z" fill="#4C020C"/>
<defs>
<clipPath id="clip0_16_8">
<rect width="60" height="50" fill="white" transform="translate(0 6)"/>
</clipPath>
</defs>
</svg>
